<?xml version="1.0" encoding="iso-8859-1"?>
<!-- Generator: Adobe Illustrator 19.0.0, SVG Export Plug-In . SVG Version: 6.00 Build 0)  -->
<svg version="1.1" id="Capa_1" xmlns="http://www.w3.org/2000/svg" xmlns:xlink="http://www.w3.org/1999/xlink" x="0px" y="0px"
	 viewBox="0 0 512 512" style="enable-background:new 0 0 512 512;" xml:space="preserve">
<circle style="fill:#50206C;" cx="256" cy="256" r="256"/>
<path style="fill:#3D1952;" d="M496.344,344.352L227.308,75.316h-57.384v114.767h0.092l-0.092,0.092l114.767,114.767v57.106
	l-57.229-57.229l-0.154,0.155v-0.124H112.541v114.767h0.124l-0.124,0.124l85.721,85.721C216.818,509.739,236.146,512,256,512
	C366.333,512,460.363,442.202,496.344,344.352z"/>
<polygon style="fill:#B2FA09;" points="342.075,362.233 342.075,304.85 284.692,304.85 284.692,362.233 227.308,362.233 
	227.308,419.617 399.459,419.617 399.459,362.233 "/>
<polygon style="fill:#FFDA44;" points="227.308,132.699 227.308,75.316 169.925,75.316 169.925,190.083 227.308,190.083 
	227.308,247.466 284.692,247.466 284.692,132.699 "/>
<polygon style="fill:#FFA733;" points="284.692,247.466 284.692,132.699 227.308,190.083 227.308,247.466 "/>
<polygon style="fill:#57A4FF;" points="342.075,304.85 284.692,304.85 284.692,247.466 399.459,247.466 399.459,362.233 
	342.075,362.233 "/>
<polygon style="fill:#2488FF;" points="342.075,362.233 399.459,362.233 399.459,247.466 342.075,304.85 "/>
<rect x="112.54" y="304.851" style="fill:#F7AFD1;" width="114.766" height="114.766"/>
<polygon style="fill:#F072AE;" points="112.541,419.617 227.308,419.617 227.308,304.85 "/>
<polygon style="fill:#9CDD05;" points="342.075,362.233 342.075,305.097 227.555,419.617 399.459,419.617 399.459,362.233 "/>
<g>
</g>
<g>
</g>
<g>
</g>
<g>
</g>
<g>
</g>
<g>
</g>
<g>
</g>
<g>
</g>
<g>
</g>
<g>
</g>
<g>
</g>
<g>
</g>
<g>
</g>
<g>
</g>
<g>
</g>
</svg>
